<svg xmlns="http://www.w3.org/2000/svg" version="2.0" viewBox="0 0 256 256" width="24" height="24"
 ><g style="display:inline;opacity:1"><path fill="#f04050" d="M256 128c0 70.692-57.308 128-128 128C57.308 256 0 198.692 0 128 0 57.308 57.307 0 128 0c70.692 0 128 57.307 128 128Z" style="display:inline;fill:#ed3e49;fill-opacity:1"/><path fill="#fff" d="M112.574 135.15c1.409-.13 5.7.282 7.302.98.904 6.162-5.794 8.271-9.493 6.358-3.228-1.669-2.214-6.933 2.19-7.338zM170.411 124.505c4.229 0 6.63 3.711 6.63 6.27 0 .193-12.699.041-12.699.041 0-2.336 1.841-6.311 6.07-6.311z" style="display:inline"/><path fill="#fff" d="M214.894 141.342c-6.23 42.777-43.347 74.648-86.604 74.648-48.595 0-88.454-39.394-88.454-87.99 0-48.595 39.859-87.99 88.454-87.99 43.257 0 80.217 32.226 86.604 74.439h12.385c8.64 0 15.406 4.911 15.406 13.551s-6.767 13.342-15.406 13.342zm-65.616-34.585c-7.057-.866-12.454 1.724-12.454 8.996l.025 2.647c-2.1 0-3.823 1.52-3.823 3.353 0 1.833 1.42 3.808 3.94 3.943v19.145c0 1.789 2.033 3.914 4.442 3.914 2.409 0 4.05-1.975 4.05-3.914v-19.268h4.08c2.084 0 3.166-2.398 3.166-4.007 0-1.608-1.254-3.023-3.628-3.032l-3.557-.006.006-2.097c.009-1.93 1.205-2.458 3.335-2.458 2.474 0 3.899-1.856 3.878-3.653-.019-1.644-1.036-3.152-3.46-3.563zm-69.406 11.127c-18.169 5.262-14.755 31.611 4.096 31.611 7.88 0 14.341-5.267 11.24-9.163-1.427-1.793-3.801-2.001-6.004-.273-7.386 5.276-15.372-2.388-11.558-10.73 1.959-4.283 6.936-5.488 11.104-2.598 4.167 2.89 6.481-1.057 6.481-1.057 2.26-6.517-8.99-9.431-15.359-7.79zm37.632-.02c-5.858-.964-13.475.659-14.81 3.154-1.67 3.12 1.293 6.028 5.135 5.041 6.154-1.58 11.028-.45 11.64 3.171.11.648.346 1.876.346 1.876s-1.288-.386-2.506-.685c-10.616-2.609-19.147 3.153-17.191 11.61 1.623 7.016 11.25 9.794 17.769 5.126 1.414-1.013 1.776-1.516 1.776-1.516.871 4.182 6.043 4.11 7.833 1.21.11-.179.402-.916.402-1.646 0-4.75.435-16.717-.287-18.626-1.59-4.198-3.484-7.627-10.107-8.715zm63.636 28.673c2.375-1.714 2.285-4.011 1.231-5.526-.94-1.352-2.296-1.896-4.736-.487-1.463.845-3.196 1.973-6.379 1.973-3.182 0-6.856-2.606-6.856-6.216l18.177-.025c.279 0 1.215-.39 1.793-1.112.631-.787.894-1.946.894-2.891 0-14.937-17.05-18.455-24.668-10.836-7.618 7.618-5.475 18.63-.909 23.282 3.023 3.08 7.439 4.622 12.061 4.622 3.168 0 6.423-1.202 9.392-2.784z" style="display:inline;opacity:1;fill:#fff"/></g></svg>